PathFileType	4	(X/Y/Z)	/Users/itak/Documents/Research/Walk-IL/dataset/trc/00326_00011.trc
DataRate	CameraRate	NumFrames	NumMarkers	Units	OrigDataRate	OrigDataStartFrame	OrigNumFrames
100.000000	100.000000	4	55	mm	100.000000	308	494
Frame#	Time	RPSI			LPSI			L3			STRN			T10			C7			CLAV			RBAK			LBAK			LSHO			LUPA			LAEL			LAOL			LWTS			LWPS			LFRA			LHPS			LHTS			RSHO			RUPA			RAEL			RAOL			RWTS			RWPS			RFRA			RIFD			RHTS			RHPS			RBHD			LFHD			RFHD			LBHD			LHIP			RHIP			RASI			LASI			LKNE			LTHI			LANK			LTIP			LTOE			LMT1			LMT5			LHEE			RKNE			RTHI			RANK			RTIP			RTOE			RMT1			RMT5			RHEE			LIFD			*53			*54			
		X1	Y1	Z1	X2	Y2	Z2	X3	Y3	Z3	X4	Y4	Z4	X5	Y5	Z5	X6	Y6	Z6	X7	Y7	Z7	X8	Y8	Z8	X9	Y9	Z9	X10	Y10	Z10	X11	Y11	Z11	X12	Y12	Z12	X13	Y13	Z13	X14	Y14	Z14	X15	Y15	Z15	X16	Y16	Z16	X17	Y17	Z17	X18	Y18	Z18	X19	Y19	Z19	X20	Y20	Z20	X21	Y21	Z21	X22	Y22	Z22	X23	Y23	Z23	X24	Y24	Z24	X25	Y25	Z25	X26	Y26	Z26	X27	Y27	Z27	X28	Y28	Z28	X29	Y29	Z29	X30	Y30	Z30	X31	Y31	Z31	X32	Y32	Z32	X33	Y33	Z33	X34	Y34	Z34	X35	Y35	Z35	X36	Y36	Z36	X37	Y37	Z37	X38	Y38	Z38	X39	Y39	Z39	X40	Y40	Z40	X41	Y41	Z41	X42	Y42	Z42	X43	Y43	Z43	X44	Y44	Z44	X45	Y45	Z45	X46	Y46	Z46	X47	Y47	Z47	X48	Y48	Z48	X49	Y49	Z49	X50	Y50	Z50	X51	Y51	Z51	X52	Y52	Z52	X53	Y53	Z53	X54	Y54	Z54	X55	Y55	Z55	

309	3.08	201.3821716308594	937.3755493164062	92.69474029541016	212.3289489746094	938.71923828125	-37.2700080871582	198.8433380126953	993.0447387695312	41.79047393798828	413.8685302734375	1193.054565429688	29.64299011230469	175.6938781738281	1109.655517578125	46.03852081298828	201.4594268798828	1359.881958007812	26.98272895812988	360.9916687011719	1314.470336914062	25.01803779602051	164.9243469238281	1219.402709960938	98.72766876220703	187.2936706542969	1321.203125	-71.51802825927734	267.0286865234375	1341.1328125	-134.4400787353516	222.5310668945312	1226.285278320312	-191.580810546875	181.7959289550781	1029.067626953125	-193.1179656982422	143.5875091552734	1028.889892578125	-117.1115646362305	194.8078155517578	761.6998291015625	-173.4333038330078	138.0984954833984	774.2736206054688	-210.9095764160156	158.8778686523438	926.4581909179688	-199.4498138427734	108.3896102905273	711.12939453125	-199.4541473388672	160.5264739990234	681.4564819335938	-182.2241058349609	265.2091369628906	1352.226806640625	187.8070068359375	267.5988464355469	1285.968994140625	252.6566314697266	355.5225219726562	1035.71826171875	300.9559936523438	319.8331909179688	1008.05859375	216.6931762695312	552.4617309570312	880.0404663085938	258.8968505859375	530.4169311523438	852.9227294921875	326.9241027832031	405.8402404785156	983.5968627929688	313.7676696777344	652.693603515625	740.460205078125	274.1817626953125	626.939208984375	808.15625	275.27197265625	584.8810424804688	787.6303100585938	326.3432006835938	228.7099914550781	1566.076538085938	98.99246215820312	393.5628356933594	1596.62158203125	-25.31721496582031	386.1430358886719	1599.679443359375	75.32625579833984	212.7403259277344	1552.823486328125	-44.8768424987793	316.1853942871094	892.0367431640625	-129.6332855224609	266.4165954589844	881.3215942382812	211.1244812011719	376.0362243652344	912.895751953125	184.1808776855469	422.9538269042969	927.0436401367188	-51.12214279174805	513.99951171875	464.2934265136719	-66.48095703125	465.3632202148438	594.7276000976562	-95.78651428222656	489.6374816894531	42.00106811523438	-37.10129165649414	515.385009765625	239.8828430175781	-61.07969284057617	692.0573120117188	43.11771774291992	41.08768844604492	618.5382080078125	27.85290145874023	76.21390533447266	615.6362915039062	39.31667709350586	-36.61385726928711	450.8406677246094	35.50116348266602	26.9146900177002	261.3042907714844	430.6692199707031	175.4681854248047	324.3816833496094	674.7554931640625	211.7809600830078	-40.40291213989258	131.6499481201172	114.7639541625977	198.4853363037109	323.080810546875	159.3012084960938	93.39076995849609	36.25726699829102	50.95713806152344	51.79922103881836	49.42490005493164	12.53979110717773	19.51077651977539	50.89582443237305	126.9735870361328	-70.734619140625	173.2781982421875	70.18870544433594	132.6439208984375	614.40771484375	-161.1176910400391	nan	nan	nan	nan	nan	nan	
310	3.09	212.096923828125	937.5870361328125	92.09330749511719	223.2477111816406	939.8470458984375	-37.934814453125	209.6186828613281	994.0156860351562	41.01664733886719	424.3344421386719	1194.524169921875	29.68619728088379	186.7512664794922	1110.432006835938	45.06462860107422	211.5490417480469	1360.8056640625	26.10324096679688	371.1355590820312	1315.808227539062	24.8161563873291	175.1508178710938	1220.272216796875	97.658935546875	197.9119110107422	1322.065063476562	-72.55001068115234	277.9003601074219	1342.253662109375	-135.0430755615234	235.02099609375	1226.860229492188	-192.6637268066406	197.1669311523438	1028.828125	-194.8749389648438	157.9715576171875	1028.283569335938	-119.4034805297852	215.4916687011719	761.9634399414062	-174.4925994873047	158.9369201660156	773.1437377929688	-212.5758666992188	176.2695770263672	925.7913208007812	-201.1845245361328	130.6902160644531	709.2755126953125	-201.2962341308594	182.2128295898438	679.9148559570312	-182.7979888916016	274.6373291015625	1353.306762695312	187.1976623535156	276.7061157226562	1286.938842773438	251.9921875	361.6076965332031	1035.479614257812	299.0708618164062	326.5933532714844	1008.952819824219	214.2981567382812	555.5590209960938	875.4232177734375	259.1097717285156	531.9722900390625	848.835693359375	326.9549865722656	410.7417602539062	982.417724609375	312.1960754394531	651.8150634765625	733.23486328125	275.3795471191406	627.943359375	801.7034301757812	276.2986145019531	584.73681640625	782.1561889648438	326.7605895996094	238.2730255126953	1567.08740234375	98.40174102783203	403.3220825195312	1597.802490234375	-25.57317924499512	395.6911010742188	1600.7685546875	75.09384155273438	222.5590209960938	1553.9658203125	-45.48923110961914	327.2792663574219	893.4398803710938	-129.8116455078125	277.1876220703125	881.4953002929688	210.5073089599609	386.5953369140625	913.8062133789062	183.8134155273438	434.0982666015625	928.6257934570312	-51.21738052368164	522.6497802734375	464.4613342285156	-66.40012359619141	475.4297790527344	595.7005615234375	-95.74594879150391	490.4444580078125	42.58395385742188	-36.9373664855957	520.43701171875	239.7273864746094	-60.73881530761719	692.8597412109375	40.50550842285156	41.88302612304688	618.9230346679688	26.29519462585449	76.73334503173828	616.4364013671875	38.6281852722168	-36.14467239379883	451.4513549804688	36.0178337097168	26.92223739624023	280.3093566894531	431.1193237304688	177.8597412109375	338.4124450683594	675.3209838867188	212.022705078125	-29.01131057739258	140.1002807617188	116.142448425293	215.4954071044922	325.1173400878906	161.9304809570312	95.99765777587891	35.35934448242188	51.88214874267578	57.12693023681641	52.27359008789062	13.64235496520996	24.34096336364746	55.04452514648438	127.9968795776367	-56.05834579467773	184.0086822509766	71.76518249511719	156.9156799316406	613.229248046875	-162.5916137695312	nan	nan	nan	nan	nan	nan	
311	3.1	222.4480590820312	937.8240966796875	91.49781799316406	233.9065856933594	941.0028076171875	-38.53475570678711	220.050048828125	995.0985717773438	40.22502899169922	434.6632995605469	1196.022216796875	29.81631660461426	197.6279144287109	1111.362670898438	44.05560302734375	221.5842895507812	1361.852172851562	25.23283958435059	381.1944580078125	1317.18310546875	24.7178783416748	185.2486267089844	1221.278686523438	96.58399963378906	208.5399627685547	1323.077758789062	-73.58274078369141	288.8328552246094	1343.5166015625	-135.5795288085938	247.6427764892578	1227.6279296875	-193.7575988769531	212.7901000976562	1028.771118164062	-196.6742706298828	172.4550476074219	1027.84716796875	-121.8632049560547	236.7542266845703	762.6448364257812	-175.5744323730469	180.4052886962891	772.2857666015625	-214.3174743652344	194.0484161376953	925.3367919921875	-203.0022888183594	153.7100677490234	707.6825561523438	-203.2618255615234	204.6402130126953	678.7532348632812	-183.4254608154297	283.9364013671875	1354.493041992188	186.6147613525391	285.6416625976562	1288.045654296875	251.3697509765625	367.484375	1035.3916015625	297.2360229492188	333.2129516601562	1010.019104003906	211.9544219970703	558.2083740234375	870.8201293945312	259.4718627929688	532.9747924804688	844.8041381835938	327.0682373046875	415.3753967285156	981.4004516601562	310.6844177246094	650.133544921875	725.9301147460938	276.7752075195312	628.2874145507812	795.178955078125	277.5328063964844	583.8688354492188	776.7024536132812	327.2774658203125	247.8086853027344	1568.135620117188	97.85080718994141	413.04248046875	1599.046630859375	-25.7990608215332	405.2032775878906	1601.929809570312	74.89453887939453	232.3497924804688	1555.1298828125	-46.05680465698242	338.0146789550781	894.8222045898438	-129.8729705810547	287.6476440429688	881.725341796875	209.8381195068359	396.8355407714844	914.8685302734375	183.4891357421875	444.9579467773438	930.2291259765625	-51.28559875488281	530.517333984375	464.6113586425781	-66.462646484375	485.12060546875	596.7887573242188	-95.96804809570312	491.0618591308594	43.04800796508789	-36.78340530395508	524.7885131835938	239.5443267822266	-60.52213287353516	693.4092407226562	38.53963088989258	42.36519241333008	619.2227172851562	25.21541976928711	77.06017303466797	617.0164184570312	38.15106582641602	-35.87717437744141	451.9604187011719	36.42167282104492	26.98520851135254	300.0426330566406	431.7043151855469	180.4143371582031	352.4459838867188	676.028564453125	212.3721313476562	-16.35847282409668	148.976806640625	117.6748352050781	233.4869689941406	327.3233032226562	164.6550445556641	99.79997253417969	34.40580749511719	53.18356323242188	63.76389312744141	55.67082214355469	15.040846824646	30.29889678955078	60.0210075378418	129.1863708496094	-40.04594421386719	194.9560089111328	73.46146392822266	181.9470977783203	612.3810424804688	-164.0966339111328	nan	nan	nan	nan	nan	nan	
312	3.11	232.4368133544922	938.0548706054688	90.91828155517578	244.3091430664062	942.1497802734375	-39.06572723388672	230.1361846923828	996.2505493164062	39.41596603393555	444.8272705078125	1197.509765625	30.04217338562012	208.2798919677734	1112.41357421875	43.02216339111328	231.5438232421875	1362.990112304688	24.37165069580078	391.1497497558594	1318.563354492188	24.73057746887207	195.1866149902344	1222.386352539062	95.49232482910156	219.160888671875	1324.20361328125	-74.61557769775391	299.8114318847656	1344.881591796875	-136.0471038818359	260.3831787109375	1228.543701171875	-194.8541107177734	228.6372833251953	1028.8671875	-198.4989624023438	187.0167236328125	1027.533325195312	-124.4791564941406	258.5332641601562	763.72900390625	-176.6701507568359	202.4494171142578	771.7000732421875	-216.1207885742188	212.1735076904297	925.0712890625	-204.8911285400391	177.3961639404297	706.3656005859375	-205.3428955078125	227.8112487792969	678.0537719726562	-184.1535186767578	293.0772705078125	1355.740844726562	186.0697021484375	294.3630065917969	1289.23046875	250.7870178222656	373.1503601074219	1035.401733398438	295.4802551269531	339.6884460449219	1011.199584960938	209.6821594238281	560.4286499023438	866.2466430664062	259.9942321777344	533.4620361328125	840.8511962890625	327.2537536621094	419.7535705566406	980.5142211914062	309.2522277832031	647.6844482421875	718.6027221679688	278.345458984375	627.9931030273438	788.6129150390625	278.9568786621094	582.3184204101562	771.3117065429688	327.8899230957031	257.3076477050781	1569.202514648438	97.34259796142578	422.7182922363281	1600.329833984375	-25.9900016784668	414.677490234375	1603.144287109375	74.72882080078125	242.1065826416016	1556.291015625	-46.57436370849609	348.4192810058594	896.1631469726562	-129.8530578613281	297.7974853515625	881.964599609375	209.1304473876953	406.7552490234375	916.0293579101562	183.2170104980469	455.5309143066406	931.8132934570312	-51.33898544311523	537.548828125	464.718994140625	-66.60808563232422	494.3215026855469	597.8982543945312	-96.38816833496094	491.50341796875	43.40181732177734	-36.6346549987793	528.486083984375	239.330322265625	-60.40840530395508	693.7445678710938	37.12949371337891	42.63996505737305	619.4356689453125	24.51626586914062	77.26132202148438	617.4113159179688	37.83574295043945	-35.73588562011719	452.3588256835938	36.72595977783203	27.09556770324707	320.36328125	432.4505920410156	183.0386962890625	366.4234619140625	676.8614501953125	212.8110656738281	-2.488880395889282	158.1412963867188	119.3150863647461	252.3342590332031	329.677490234375	167.3903350830078	105.0903701782227	33.51264572143555	54.93778991699219	71.91805267333984	59.57110214233398	16.77704048156738	37.60625076293945	65.76959228515625	130.5758819580078	-22.85836029052734	205.9125671386719	75.20536041259766	207.6699981689453	611.8705444335938	-165.6380615234375	nan	nan	nan	nan	nan	nan	
